<svg xmlns="http://www.w3.org/2000/svg" xmlns:xlink="http://www.w3.org/1999/xlink" width="19" height="18" viewBox="0 0 19 18">
    <defs>
        <linearGradient id="c" x1="50%" x2="50%" y1="3.117%" y2="100%">
            <stop offset="0%" stop-color="#FFF"/>
            <stop offset="100%" stop-color="#617985"/>
        </linearGradient>
        <rect id="b" width="16" height="16" rx="3"/>
        <filter id="a" width="137.5%" height="137.5%" x="-18.8%" y="-6.2%" filterUnits="objectBoundingBox">
            <feOffset dy="1" in="SourceAlpha" result="shadowOffsetOuter1"/>
            <feGaussianBlur in="shadowOffsetOuter1" result="shadowBlurOuter1" stdDeviation=".5"/>
            <feComposite in="shadowBlurOuter1" in2="SourceAlpha" operator="out" result="shadowBlurOuter1"/>
            <feColorMatrix in="shadowBlurOuter1" result="shadowMatrixOuter1" values="0 0 0 0 0.251 0 0 0 0 0.3216 0 0 0 0 0.3451 0 0 0 0.032 0"/>
            <feOffset dy="1" in="SourceAlpha" result="shadowOffsetOuter2"/>
            <feGaussianBlur in="shadowOffsetOuter2" result="shadowBlurOuter2" stdDeviation=".5"/>
            <feComposite in="shadowBlurOuter2" in2="SourceAlpha" operator="out" result="shadowBlurOuter2"/>
            <feColorMatrix in="shadowBlurOuter2" result="shadowMatrixOuter2" values="0 0 0 0 0.3796 0 0 0 0 0.4755 0 0 0 0 0.52 0 0 0 0.0528 0"/>
            <feMerge>
                <feMergeNode in="shadowMatrixOuter1"/>
                <feMergeNode in="shadowMatrixOuter2"/>
            </feMerge>
        </filter>
    </defs>
    <g fill="none" fill-rule="evenodd">
        <g transform="translate(1.388)">
            <use fill="#000" filter="url(#a)" xlink:href="#b"/>
            <use fill="#FFF" xlink:href="#b"/>
            <rect width="15" height="15" x=".5" y=".5" fill="url(#c)" fill-opacity=".02" stroke="#15959A" stroke-linejoin="square" rx="3"/>
        </g>
        <path fill="#15959A" d="M7.703 11.858L4.521 8.441a.506.506 0 0 1 0-.684l.643-.683a.437.437 0 0 1 .643 0l2.218 2.393 4.944-5.326a.437.437 0 0 1 .643 0l.643.684a.504.504 0 0 1 0 .683l-5.91 6.35a.437.437 0 0 1-.642 0"/>
    </g>
</svg>
